<svg width="134" height="135" viewBox="0 0 134 135" fill="none" xmlns="http://www.w3.org/2000/svg">
<path d="M59.3333 1.36628C55.0667 2.03294 48.2667 4.03294 44.2667 5.89961L36.8 9.23294L37.7333 20.9663C39.2 38.5663 43.2 60.0329 48.5333 78.4329C51.2 87.6329 53.0667 95.7663 52.6667 96.6996C52.4 97.4996 50.2667 98.8329 47.8667 99.6329C44 100.966 43.6 100.833 42.4 97.4996C37.2 84.4329 27.6 52.8329 24.8 39.8996L21.4667 24.5663L18 32.4329C16 36.8329 14 43.2329 13.6 46.8329C13.2 50.4329 12.2667 52.8329 11.4667 52.2996C9.46667 51.0996 11.6 33.7663 15.2 23.2329C16.9333 18.0329 18.1333 13.7663 17.8667 13.4996C17.7333 13.2329 13.6 14.6996 8.8 16.6996L0 20.2996L0.666667 26.4329C2.93333 45.2329 10.8 69.2329 19.3333 83.3663C24.1333 91.4996 32.4 100.7 38.8 105.366L42.5333 108.033L50.8 102.433C63.6 93.8996 79.3333 80.1663 94.8 64.1663L108.667 49.7663L112.933 52.4329C115.2 54.0329 117.2 55.6329 117.2 56.1663C117.2 58.5663 98.6667 79.7663 82.2667 96.1663L63.8667 114.433L70.9333 113.633C74.6667 113.233 81.2 111.766 85.2 110.566C89.2 109.233 92.6667 108.3 93.0667 108.566C94 109.5 84.4 114.7 78 116.566C74.4 117.633 69.4667 118.566 67.0667 118.566H62.6667L66.1333 126.566C68.1333 130.966 70.2667 134.566 71.0667 134.566C74.1333 134.566 92.6667 117.5 101.333 106.833C115.067 89.7663 123.867 70.9663 123.867 58.5663C123.867 53.7663 123.867 53.6329 110.933 47.4996C91.6 38.4329 73.8667 32.5663 44.9333 26.0329C41.7333 25.3663 41.2 24.5663 41.2 20.4329C41.2 17.3663 42 15.4996 43.3333 14.9663C47.8667 13.2329 85.0667 21.2329 106.4 28.5663C111.867 30.4329 116.533 31.6329 116.933 31.3663C118 30.2996 109.2 18.8329 103.6 14.0329C97.3333 8.56628 97.7333 8.03294 105.067 11.7663C109.867 14.2996 117.067 21.3663 121.2 27.7663L123.333 30.9663L128.533 23.3663C131.333 19.2329 133.333 15.7663 133.067 15.4996C130.533 13.4996 114.267 7.63294 105.067 5.36628C95.3333 2.96628 72.4 -0.367056 68.5333 0.0329438C67.8667 0.166277 63.7333 0.699611 59.3333 1.36628Z" fill="#377DFF"/>
</svg>
