<svg width="423" height="135" viewBox="0 0 423 135" fill="none" xmlns="http://www.w3.org/2000/svg">
<path d="M59.3333 1.36628C55.0667 2.03294 48.2667 4.03294 44.2667 5.89961L36.8 9.23294L37.7333 20.9663C39.2 38.5663 43.2 60.0329 48.5333 78.4329C51.2 87.6329 53.0667 95.7663 52.6667 96.6996C52.4 97.4996 50.2667 98.8329 47.8667 99.6329C44 100.966 43.6 100.833 42.4 97.4996C37.2 84.4329 27.6 52.8329 24.8 39.8996L21.4667 24.5663L18 32.4329C16 36.8329 14 43.2329 13.6 46.8329C13.2 50.4329 12.2667 52.8329 11.4667 52.2996C9.46667 51.0996 11.6 33.7663 15.2 23.2329C16.9333 18.0329 18.1333 13.7663 17.8667 13.4996C17.7333 13.2329 13.6 14.6996 8.8 16.6996L0 20.2996L0.666667 26.4329C2.93333 45.2329 10.8 69.2329 19.3333 83.3663C24.1333 91.4996 32.4 100.7 38.8 105.366L42.5333 108.033L50.8 102.433C63.6 93.8996 79.3333 80.1663 94.8 64.1663L108.667 49.7663L112.933 52.4329C115.2 54.0329 117.2 55.6329 117.2 56.1663C117.2 58.5663 98.6667 79.7663 82.2667 96.1663L63.8667 114.433L70.9333 113.633C74.6667 113.233 81.2 111.766 85.2 110.566C89.2 109.233 92.6667 108.3 93.0667 108.566C94 109.5 84.4 114.7 78 116.566C74.4 117.633 69.4667 118.566 67.0667 118.566H62.6667L66.1333 126.566C68.1333 130.966 70.2667 134.566 71.0667 134.566C74.1333 134.566 92.6667 117.5 101.333 106.833C115.067 89.7663 123.867 70.9663 123.867 58.5663C123.867 53.7663 123.867 53.6329 110.933 47.4996C91.6 38.4329 73.8667 32.5663 44.9333 26.0329C41.7333 25.3663 41.2 24.5663 41.2 20.4329C41.2 17.3663 42 15.4996 43.3333 14.9663C47.8667 13.2329 85.0667 21.2329 106.4 28.5663C111.867 30.4329 116.533 31.6329 116.933 31.3663C118 30.2996 109.2 18.8329 103.6 14.0329C97.3333 8.56628 97.7333 8.03294 105.067 11.7663C109.867 14.2996 117.067 21.3663 121.2 27.7663L123.333 30.9663L128.533 23.3663C131.333 19.2329 133.333 15.7663 133.067 15.4996C130.533 13.4996 114.267 7.63294 105.067 5.36628C95.3333 2.96628 72.4 -0.367056 68.5333 0.0329438C67.8667 0.166277 63.7333 0.699611 59.3333 1.36628Z" fill="#377DFF"/>
<path d="M169.01 57.7031L156.05 88.1831C155.77 88.9431 155.33 89.5431 154.73 89.9831C154.17 90.3831 153.55 90.5831 152.87 90.5831C151.79 90.5831 150.99 90.2831 150.47 89.6831C149.95 89.0831 149.69 88.3431 149.69 87.4631C149.69 87.1031 149.75 86.7231 149.87 86.3231L164.81 50.4431C165.13 49.6431 165.61 49.0231 166.25 48.5831C166.93 48.1431 167.65 47.9631 168.41 48.0431C169.13 48.0431 169.79 48.2631 170.39 48.7031C171.03 49.1031 171.49 49.6831 171.77 50.4431L186.53 85.6031C186.73 86.1231 186.83 86.6031 186.83 87.0431C186.83 88.1231 186.47 88.9831 185.75 89.6231C185.07 90.2631 184.31 90.5831 183.47 90.5831C182.75 90.5831 182.09 90.3631 181.49 89.9231C180.93 89.4831 180.49 88.8831 180.17 88.1231L167.27 58.0631L169.01 57.7031ZM157.91 80.8631L161.21 73.9631H177.41L178.55 80.8631H157.91ZM195.511 90.2831C194.471 90.2831 193.611 89.9431 192.931 89.2631C192.251 88.5431 191.911 87.6631 191.911 86.6231V61.8431C191.911 60.8031 192.251 59.9431 192.931 59.2631C193.611 58.5431 194.471 58.1831 195.511 58.1831C196.551 58.1831 197.411 58.5431 198.091 59.2631C198.771 59.9431 199.111 60.8031 199.111 61.8431V67.4831L198.691 63.4631C199.131 62.5031 199.691 61.6631 200.371 60.9431C201.091 60.1831 201.891 59.5631 202.771 59.0831C203.651 58.5631 204.591 58.1831 205.591 57.9431C206.591 57.7031 207.591 57.5831 208.591 57.5831C209.791 57.5831 210.791 57.9231 211.591 58.6031C212.431 59.2831 212.851 60.0831 212.851 61.0031C212.851 62.3231 212.511 63.2831 211.831 63.8831C211.151 64.4431 210.411 64.7231 209.611 64.7231C208.851 64.7231 208.151 64.5831 207.511 64.3031C206.911 64.0231 206.211 63.8831 205.411 63.8831C204.691 63.8831 203.951 64.0631 203.191 64.4231C202.471 64.7431 201.791 65.2631 201.151 65.9831C200.551 66.7031 200.051 67.6031 199.651 68.6831C199.291 69.7231 199.111 70.9631 199.111 72.4031V86.6231C199.111 87.6631 198.771 88.5431 198.091 89.2631C197.411 89.9431 196.551 90.2831 195.511 90.2831ZM231.459 57.5831C233.739 57.5831 235.719 57.8231 237.399 58.3031C239.119 58.7831 240.439 59.4631 241.359 60.3431C242.319 61.1831 242.799 62.2031 242.799 63.4031C242.799 64.2031 242.559 64.9631 242.079 65.6831C241.599 66.3631 240.899 66.7031 239.979 66.7031C239.339 66.7031 238.799 66.6231 238.359 66.4631C237.959 66.2631 237.599 66.0231 237.279 65.7431C236.959 65.4631 236.579 65.2031 236.139 64.9631C235.739 64.7231 235.119 64.5431 234.279 64.4231C233.479 64.2631 232.879 64.1831 232.479 64.1831C230.439 64.1831 228.699 64.6231 227.259 65.5031C225.859 66.3831 224.779 67.5831 224.019 69.1031C223.259 70.5831 222.879 72.3031 222.879 74.2631C222.879 76.1831 223.259 77.9031 224.019 79.4231C224.819 80.9031 225.899 82.0831 227.259 82.9631C228.659 83.8431 230.259 84.2831 232.059 84.2831C233.059 84.2831 233.919 84.2231 234.639 84.1031C235.359 83.9831 235.959 83.8031 236.439 83.5631C236.999 83.2431 237.499 82.9031 237.939 82.5431C238.379 82.1831 239.039 82.0031 239.919 82.0031C240.959 82.0031 241.759 82.3431 242.319 83.0231C242.879 83.6631 243.159 84.4631 243.159 85.4231C243.159 86.4231 242.599 87.3431 241.479 88.1831C240.359 88.9831 238.879 89.6431 237.039 90.1631C235.239 90.6431 233.279 90.8831 231.159 90.8831C227.999 90.8831 225.259 90.1631 222.939 88.7231C220.619 87.2431 218.819 85.2431 217.539 82.7231C216.299 80.2031 215.679 77.3831 215.679 74.2631C215.679 70.9831 216.339 68.1031 217.659 65.6231C219.019 63.1031 220.879 61.1431 223.239 59.7431C225.639 58.3031 228.379 57.5831 231.459 57.5831ZM265.81 57.5831C268.69 57.5831 270.87 58.2031 272.35 59.4431C273.87 60.6831 274.91 62.3431 275.47 64.4231C276.03 66.4631 276.31 68.7431 276.31 71.2631V86.6231C276.31 87.6631 275.97 88.5431 275.29 89.2631C274.61 89.9431 273.75 90.2831 272.71 90.2831C271.67 90.2831 270.81 89.9431 270.13 89.2631C269.45 88.5431 269.11 87.6631 269.11 86.6231V71.2631C269.11 69.9431 268.95 68.7631 268.63 67.7231C268.31 66.6431 267.73 65.7831 266.89 65.1431C266.05 64.5031 264.85 64.1831 263.29 64.1831C261.77 64.1831 260.47 64.5031 259.39 65.1431C258.31 65.7831 257.49 66.6431 256.93 67.7231C256.41 68.7631 256.15 69.9431 256.15 71.2631V86.6231C256.15 87.6631 255.81 88.5431 255.13 89.2631C254.45 89.9431 253.59 90.2831 252.55 90.2831C251.51 90.2831 250.65 89.9431 249.97 89.2631C249.29 88.5431 248.95 87.6631 248.95 86.6231V49.5431C248.95 48.5031 249.29 47.6431 249.97 46.9631C250.65 46.2431 251.51 45.8831 252.55 45.8831C253.59 45.8831 254.45 46.2431 255.13 46.9631C255.81 47.6431 256.15 48.5031 256.15 49.5431V64.4231L255.25 64.2431C255.61 63.5631 256.11 62.8431 256.75 62.0831C257.39 61.2831 258.17 60.5431 259.09 59.8631C260.01 59.1831 261.03 58.6431 262.15 58.2431C263.27 57.8031 264.49 57.5831 265.81 57.5831ZM291.487 86.6231C291.487 87.6631 291.147 88.5431 290.467 89.2631C289.787 89.9431 288.927 90.2831 287.887 90.2831C286.847 90.2831 285.987 89.9431 285.307 89.2631C284.627 88.5431 284.287 87.6631 284.287 86.6231V61.8431C284.287 60.8031 284.627 59.9431 285.307 59.2631C285.987 58.5431 286.847 58.1831 287.887 58.1831C288.927 58.1831 289.787 58.5431 290.467 59.2631C291.147 59.9431 291.487 60.8031 291.487 61.8431V86.6231ZM287.827 54.2831C286.467 54.2831 285.507 54.0631 284.947 53.6231C284.387 53.1831 284.107 52.4031 284.107 51.2831V50.1431C284.107 48.9831 284.407 48.2031 285.007 47.8031C285.647 47.3631 286.607 47.1431 287.887 47.1431C289.287 47.1431 290.267 47.3631 290.827 47.8031C291.387 48.2431 291.667 49.0231 291.667 50.1431V51.2831C291.667 52.4431 291.367 53.2431 290.767 53.6831C290.167 54.0831 289.187 54.2831 287.827 54.2831ZM313.586 90.8831C310.786 90.8831 308.266 90.5431 306.026 89.8631C303.786 89.1431 301.646 87.9031 299.606 86.1431C299.086 85.7031 298.686 85.2031 298.406 84.6431C298.126 84.0831 297.986 83.5231 297.986 82.9631C297.986 82.0431 298.306 81.2431 298.946 80.5631C299.626 79.8431 300.466 79.4831 301.466 79.4831C302.226 79.4831 302.906 79.7231 303.506 80.2031C305.026 81.4431 306.526 82.3831 308.006 83.0231C309.526 83.6631 311.386 83.9831 313.586 83.9831C315.066 83.9831 316.426 83.7631 317.666 83.3231C318.906 82.8431 319.906 82.2231 320.666 81.4631C321.426 80.6631 321.806 79.7631 321.806 78.7631C321.806 77.5631 321.446 76.5431 320.726 75.7031C320.006 74.8631 318.906 74.1631 317.426 73.6031C315.946 73.0031 314.066 72.5431 311.786 72.2231C309.626 71.9031 307.726 71.4231 306.086 70.7831C304.446 70.1031 303.066 69.2631 301.946 68.2631C300.866 67.2231 300.046 66.0231 299.486 64.6631C298.926 63.2631 298.646 61.7031 298.646 59.9831C298.646 57.3831 299.306 55.1631 300.626 53.3231C301.986 51.4831 303.806 50.0831 306.086 49.1231C308.366 48.1631 310.886 47.6831 313.646 47.6831C316.246 47.6831 318.646 48.0831 320.846 48.8831C323.086 49.6431 324.906 50.6231 326.306 51.8231C327.466 52.7431 328.046 53.8031 328.046 55.0031C328.046 55.8831 327.706 56.6831 327.026 57.4031C326.346 58.1231 325.546 58.4831 324.626 58.4831C324.026 58.4831 323.486 58.3031 323.006 57.9431C322.366 57.3831 321.506 56.8631 320.426 56.3831C319.346 55.8631 318.206 55.4431 317.006 55.1231C315.806 54.7631 314.686 54.5831 313.646 54.5831C311.926 54.5831 310.466 54.8031 309.266 55.2431C308.106 55.6831 307.226 56.2831 306.626 57.0431C306.026 57.8031 305.726 58.6831 305.726 59.6831C305.726 60.8831 306.066 61.8831 306.746 62.6831C307.466 63.4431 308.486 64.0631 309.806 64.5431C311.126 64.9831 312.706 65.3831 314.546 65.7431C316.946 66.1831 319.046 66.7031 320.846 67.3031C322.686 67.9031 324.206 68.6831 325.406 69.6431C326.606 70.5631 327.506 71.7431 328.106 73.1831C328.706 74.5831 329.006 76.3031 329.006 78.3431C329.006 80.9431 328.286 83.1831 326.846 85.0631C325.406 86.9431 323.506 88.3831 321.146 89.3831C318.826 90.3831 316.306 90.8831 313.586 90.8831ZM367.027 74.2631C367.027 77.5431 366.287 80.4431 364.807 82.9631C363.367 85.4431 361.407 87.3831 358.927 88.7831C356.487 90.1831 353.747 90.8831 350.707 90.8831C347.667 90.8831 344.907 90.1831 342.427 88.7831C339.987 87.3831 338.027 85.4431 336.547 82.9631C335.107 80.4431 334.387 77.5431 334.387 74.2631C334.387 70.9831 335.107 68.1031 336.547 65.6231C338.027 63.1031 339.987 61.1431 342.427 59.7431C344.907 58.3031 347.667 57.5831 350.707 57.5831C353.747 57.5831 356.487 58.3031 358.927 59.7431C361.407 61.1431 363.367 63.1031 364.807 65.6231C366.287 68.1031 367.027 70.9831 367.027 74.2631ZM359.827 74.2631C359.827 72.2231 359.407 70.4631 358.567 68.9831C357.767 67.4631 356.667 66.2831 355.267 65.4431C353.907 64.6031 352.387 64.1831 350.707 64.1831C349.027 64.1831 347.487 64.6031 346.087 65.4431C344.727 66.2831 343.627 67.4631 342.787 68.9831C341.987 70.4631 341.587 72.2231 341.587 74.2631C341.587 76.2631 341.987 78.0231 342.787 79.5431C343.627 81.0231 344.727 82.1831 346.087 83.0231C347.487 83.8631 349.027 84.2831 350.707 84.2831C352.387 84.2831 353.907 83.8631 355.267 83.0231C356.667 82.1831 357.767 81.0231 358.567 79.5431C359.407 78.0231 359.827 76.2631 359.827 74.2631ZM390.429 45.8831C391.309 45.8831 392.169 46.0031 393.009 46.2431C393.849 46.4831 394.549 46.8831 395.109 47.4431C395.669 47.9631 395.949 48.6631 395.949 49.5431C395.949 50.5431 395.649 51.3431 395.049 51.9431C394.489 52.5031 393.829 52.7831 393.069 52.7831C392.709 52.7831 392.169 52.7031 391.449 52.5431C390.729 52.3431 390.029 52.2431 389.349 52.2431C388.349 52.2431 387.569 52.4631 387.009 52.9031C386.489 53.3431 386.129 53.8631 385.929 54.4631C385.729 55.0231 385.629 55.5231 385.629 55.9631V86.6231C385.629 87.6631 385.289 88.5431 384.609 89.2631C383.929 89.9431 383.069 90.2831 382.029 90.2831C380.989 90.2831 380.129 89.9431 379.449 89.2631C378.769 88.5431 378.429 87.6631 378.429 86.6231V56.0231C378.429 53.1831 379.429 50.7831 381.429 48.8231C383.429 46.8631 386.429 45.8831 390.429 45.8831ZM391.089 58.7831C392.049 58.7831 392.849 59.1031 393.489 59.7431C394.129 60.3431 394.449 61.1231 394.449 62.0831C394.449 63.0431 394.129 63.8431 393.489 64.4831C392.849 65.0831 392.049 65.3831 391.089 65.3831H375.189C374.229 65.3831 373.429 65.0831 372.789 64.4831C372.149 63.8431 371.829 63.0431 371.829 62.0831C371.829 61.1231 372.149 60.3431 372.789 59.7431C373.429 59.1031 374.229 58.7831 375.189 58.7831H391.089ZM401.256 58.7831H415.476C416.436 58.7831 417.236 59.1031 417.876 59.7431C418.516 60.3831 418.836 61.1831 418.836 62.1431C418.836 63.0631 418.516 63.8431 417.876 64.4831C417.236 65.0831 416.436 65.3831 415.476 65.3831H401.256C400.296 65.3831 399.496 65.0631 398.856 64.4231C398.216 63.7831 397.896 62.9831 397.896 62.0231C397.896 61.1031 398.216 60.3431 398.856 59.7431C399.496 59.1031 400.296 58.7831 401.256 58.7831ZM407.676 51.2831C408.716 51.2831 409.556 51.6431 410.196 52.3631C410.876 53.0431 411.216 53.9031 411.216 54.9431V81.6431C411.216 82.2031 411.316 82.6631 411.516 83.0231C411.756 83.3831 412.056 83.6431 412.416 83.8031C412.816 83.9631 413.236 84.0431 413.676 84.0431C414.156 84.0431 414.596 83.9631 414.996 83.8031C415.396 83.6031 415.856 83.5031 416.376 83.5031C416.936 83.5031 417.436 83.7631 417.876 84.2831C418.356 84.8031 418.596 85.5231 418.596 86.4431C418.596 87.5631 417.976 88.4831 416.736 89.2031C415.536 89.9231 414.236 90.2831 412.836 90.2831C411.996 90.2831 411.056 90.2231 410.016 90.1031C409.016 89.9431 408.056 89.6031 407.136 89.0831C406.256 88.5231 405.516 87.6831 404.916 86.5631C404.316 85.4431 404.016 83.9031 404.016 81.9431V54.9431C404.016 53.9031 404.356 53.0431 405.036 52.3631C405.756 51.6431 406.636 51.2831 407.676 51.2831Z" fill="#1D1D1D"/>
</svg>
