<svg width="169" height="85" viewBox="0 0 169 85" fill="none" xmlns="http://www.w3.org/2000/svg">
<path d="M85.64 39.14L81.32 49.3C81.2267 49.5533 81.08 49.7533 80.88 49.9C80.6933 50.0333 80.4867 50.1 80.26 50.1C79.9 50.1 79.6333 50 79.46 49.8C79.2867 49.6 79.2 49.3533 79.2 49.06C79.2 48.94 79.22 48.8133 79.26 48.68L84.24 36.72C84.3467 36.4533 84.5067 36.2467 84.72 36.1C84.9467 35.9533 85.1867 35.8933 85.44 35.92C85.68 35.92 85.9 35.9933 86.1 36.14C86.3133 36.2733 86.4667 36.4667 86.56 36.72L91.48 48.44C91.5467 48.6133 91.58 48.7733 91.58 48.92C91.58 49.28 91.46 49.5667 91.22 49.78C90.9933 49.9933 90.74 50.1 90.46 50.1C90.22 50.1 90 50.0267 89.8 49.88C89.6133 49.7333 89.4667 49.5333 89.36 49.28L85.06 39.26L85.64 39.14ZM81.94 46.86L83.04 44.56H88.44L88.82 46.86H81.94ZM94.4734 50C94.1268 50 93.8401 49.8867 93.6134 49.66C93.3868 49.42 93.2734 49.1267 93.2734 48.78V40.52C93.2734 40.1733 93.3868 39.8867 93.6134 39.66C93.8401 39.42 94.1268 39.3 94.4734 39.3C94.8201 39.3 95.1068 39.42 95.3334 39.66C95.5601 39.8867 95.6734 40.1733 95.6734 40.52V42.4L95.5334 41.06C95.6801 40.74 95.8668 40.46 96.0934 40.22C96.3334 39.9667 96.6001 39.76 96.8934 39.6C97.1868 39.4267 97.5001 39.3 97.8334 39.22C98.1668 39.14 98.5001 39.1 98.8334 39.1C99.2334 39.1 99.5668 39.2133 99.8334 39.44C100.113 39.6667 100.253 39.9333 100.253 40.24C100.253 40.68 100.14 41 99.9134 41.2C99.6868 41.3867 99.4401 41.48 99.1734 41.48C98.9201 41.48 98.6868 41.4333 98.4734 41.34C98.2734 41.2467 98.0401 41.2 97.7734 41.2C97.5334 41.2 97.2868 41.26 97.0334 41.38C96.7934 41.4867 96.5668 41.66 96.3534 41.9C96.1534 42.14 95.9868 42.44 95.8534 42.8C95.7334 43.1467 95.6734 43.56 95.6734 44.04V48.78C95.6734 49.1267 95.5601 49.42 95.3334 49.66C95.1068 49.8867 94.8201 50 94.4734 50ZM106.456 39.1C107.216 39.1 107.876 39.18 108.436 39.34C109.009 39.5 109.449 39.7267 109.756 40.02C110.076 40.3 110.236 40.64 110.236 41.04C110.236 41.3067 110.156 41.56 109.996 41.8C109.836 42.0267 109.603 42.14 109.296 42.14C109.083 42.14 108.903 42.1133 108.756 42.06C108.623 41.9933 108.503 41.9133 108.396 41.82C108.289 41.7267 108.163 41.64 108.016 41.56C107.883 41.48 107.676 41.42 107.396 41.38C107.129 41.3267 106.929 41.3 106.796 41.3C106.116 41.3 105.536 41.4467 105.056 41.74C104.589 42.0333 104.229 42.4333 103.976 42.94C103.723 43.4333 103.596 44.0067 103.596 44.66C103.596 45.3 103.723 45.8733 103.976 46.38C104.243 46.8733 104.603 47.2667 105.056 47.56C105.523 47.8533 106.056 48 106.656 48C106.989 48 107.276 47.98 107.516 47.94C107.756 47.9 107.956 47.84 108.116 47.76C108.303 47.6533 108.469 47.54 108.616 47.42C108.763 47.3 108.983 47.24 109.276 47.24C109.623 47.24 109.889 47.3533 110.076 47.58C110.263 47.7933 110.356 48.06 110.356 48.38C110.356 48.7133 110.169 49.02 109.796 49.3C109.423 49.5667 108.929 49.7867 108.316 49.96C107.716 50.12 107.063 50.2 106.356 50.2C105.303 50.2 104.389 49.96 103.616 49.48C102.843 48.9867 102.243 48.32 101.816 47.48C101.403 46.64 101.196 45.7 101.196 44.66C101.196 43.5667 101.416 42.6067 101.856 41.78C102.309 40.94 102.929 40.2867 103.716 39.82C104.516 39.34 105.429 39.1 106.456 39.1ZM117.907 39.1C118.867 39.1 119.593 39.3067 120.087 39.72C120.593 40.1333 120.94 40.6867 121.127 41.38C121.313 42.06 121.407 42.82 121.407 43.66V48.78C121.407 49.1267 121.293 49.42 121.067 49.66C120.84 49.8867 120.553 50 120.207 50C119.86 50 119.573 49.8867 119.347 49.66C119.12 49.42 119.007 49.1267 119.007 48.78V43.66C119.007 43.22 118.953 42.8267 118.847 42.48C118.74 42.12 118.547 41.8333 118.267 41.62C117.987 41.4067 117.587 41.3 117.067 41.3C116.56 41.3 116.127 41.4067 115.767 41.62C115.407 41.8333 115.133 42.12 114.947 42.48C114.773 42.8267 114.687 43.22 114.687 43.66V48.78C114.687 49.1267 114.573 49.42 114.347 49.66C114.12 49.8867 113.833 50 113.487 50C113.14 50 112.853 49.8867 112.627 49.66C112.4 49.42 112.287 49.1267 112.287 48.78V36.42C112.287 36.0733 112.4 35.7867 112.627 35.56C112.853 35.32 113.14 35.2 113.487 35.2C113.833 35.2 114.12 35.32 114.347 35.56C114.573 35.7867 114.687 36.0733 114.687 36.42V41.38L114.387 41.32C114.507 41.0933 114.673 40.8533 114.887 40.6C115.1 40.3333 115.36 40.0867 115.667 39.86C115.973 39.6333 116.313 39.4533 116.687 39.32C117.06 39.1733 117.467 39.1 117.907 39.1ZM126.465 48.78C126.465 49.1267 126.352 49.42 126.125 49.66C125.899 49.8867 125.612 50 125.265 50C124.919 50 124.632 49.8867 124.405 49.66C124.179 49.42 124.065 49.1267 124.065 48.78V40.52C124.065 40.1733 124.179 39.8867 124.405 39.66C124.632 39.42 124.919 39.3 125.265 39.3C125.612 39.3 125.899 39.42 126.125 39.66C126.352 39.8867 126.465 40.1733 126.465 40.52V48.78ZM125.245 38C124.792 38 124.472 37.9267 124.285 37.78C124.099 37.6333 124.005 37.3733 124.005 37V36.62C124.005 36.2333 124.105 35.9733 124.305 35.84C124.519 35.6933 124.839 35.62 125.265 35.62C125.732 35.62 126.059 35.6933 126.245 35.84C126.432 35.9867 126.525 36.2467 126.525 36.62V37C126.525 37.3867 126.425 37.6533 126.225 37.8C126.025 37.9333 125.699 38 125.245 38ZM133.832 50.2C132.899 50.2 132.059 50.0867 131.312 49.86C130.565 49.62 129.852 49.2067 129.172 48.62C128.999 48.4733 128.865 48.3067 128.772 48.12C128.679 47.9333 128.632 47.7467 128.632 47.56C128.632 47.2533 128.739 46.9867 128.952 46.76C129.179 46.52 129.459 46.4 129.792 46.4C130.045 46.4 130.272 46.48 130.472 46.64C130.979 47.0533 131.479 47.3667 131.972 47.58C132.479 47.7933 133.099 47.9 133.832 47.9C134.325 47.9 134.779 47.8267 135.192 47.68C135.605 47.52 135.939 47.3133 136.192 47.06C136.445 46.7933 136.572 46.4933 136.572 46.16C136.572 45.76 136.452 45.42 136.212 45.14C135.972 44.86 135.605 44.6267 135.112 44.44C134.619 44.24 133.992 44.0867 133.232 43.98C132.512 43.8733 131.879 43.7133 131.332 43.5C130.785 43.2733 130.325 42.9933 129.952 42.66C129.592 42.3133 129.319 41.9133 129.132 41.46C128.945 40.9933 128.852 40.4733 128.852 39.9C128.852 39.0333 129.072 38.2933 129.512 37.68C129.965 37.0667 130.572 36.6 131.332 36.28C132.092 35.96 132.932 35.8 133.852 35.8C134.719 35.8 135.519 35.9333 136.252 36.2C136.999 36.4533 137.605 36.78 138.072 37.18C138.459 37.4867 138.652 37.84 138.652 38.24C138.652 38.5333 138.539 38.8 138.312 39.04C138.085 39.28 137.819 39.4 137.512 39.4C137.312 39.4 137.132 39.34 136.972 39.22C136.759 39.0333 136.472 38.86 136.112 38.7C135.752 38.5267 135.372 38.3867 134.972 38.28C134.572 38.16 134.199 38.1 133.852 38.1C133.279 38.1 132.792 38.1733 132.392 38.32C132.005 38.4667 131.712 38.6667 131.512 38.92C131.312 39.1733 131.212 39.4667 131.212 39.8C131.212 40.2 131.325 40.5333 131.552 40.8C131.792 41.0533 132.132 41.26 132.572 41.42C133.012 41.5667 133.539 41.7 134.152 41.82C134.952 41.9667 135.652 42.14 136.252 42.34C136.865 42.54 137.372 42.8 137.772 43.12C138.172 43.4267 138.472 43.82 138.672 44.3C138.872 44.7667 138.972 45.34 138.972 46.02C138.972 46.8867 138.732 47.6333 138.252 48.26C137.772 48.8867 137.139 49.3667 136.352 49.7C135.579 50.0333 134.739 50.2 133.832 50.2ZM151.646 44.66C151.646 45.7533 151.399 46.72 150.906 47.56C150.426 48.3867 149.772 49.0333 148.946 49.5C148.132 49.9667 147.219 50.2 146.206 50.2C145.192 50.2 144.272 49.9667 143.446 49.5C142.632 49.0333 141.979 48.3867 141.486 47.56C141.006 46.72 140.766 45.7533 140.766 44.66C140.766 43.5667 141.006 42.6067 141.486 41.78C141.979 40.94 142.632 40.2867 143.446 39.82C144.272 39.34 145.192 39.1 146.206 39.1C147.219 39.1 148.132 39.34 148.946 39.82C149.772 40.2867 150.426 40.94 150.906 41.78C151.399 42.6067 151.646 43.5667 151.646 44.66ZM149.246 44.66C149.246 43.98 149.106 43.3933 148.826 42.9C148.559 42.3933 148.192 42 147.726 41.72C147.272 41.44 146.766 41.3 146.206 41.3C145.646 41.3 145.132 41.44 144.666 41.72C144.212 42 143.846 42.3933 143.566 42.9C143.299 43.3933 143.166 43.98 143.166 44.66C143.166 45.3267 143.299 45.9133 143.566 46.42C143.846 46.9133 144.212 47.3 144.666 47.58C145.132 47.86 145.646 48 146.206 48C146.766 48 147.272 47.86 147.726 47.58C148.192 47.3 148.559 46.9133 148.826 46.42C149.106 45.9133 149.246 45.3267 149.246 44.66ZM159.446 35.2C159.739 35.2 160.026 35.24 160.306 35.32C160.586 35.4 160.819 35.5333 161.006 35.72C161.193 35.8933 161.286 36.1267 161.286 36.42C161.286 36.7533 161.186 37.02 160.986 37.22C160.799 37.4067 160.579 37.5 160.326 37.5C160.206 37.5 160.026 37.4733 159.786 37.42C159.546 37.3533 159.313 37.32 159.086 37.32C158.753 37.32 158.493 37.3933 158.306 37.54C158.133 37.6867 158.013 37.86 157.946 38.06C157.879 38.2467 157.846 38.4133 157.846 38.56V48.78C157.846 49.1267 157.733 49.42 157.506 49.66C157.279 49.8867 156.993 50 156.646 50C156.299 50 156.013 49.8867 155.786 49.66C155.559 49.42 155.446 49.1267 155.446 48.78V38.58C155.446 37.6333 155.779 36.8333 156.446 36.18C157.113 35.5267 158.113 35.2 159.446 35.2ZM159.666 39.5C159.986 39.5 160.253 39.6067 160.466 39.82C160.679 40.02 160.786 40.28 160.786 40.6C160.786 40.92 160.679 41.1867 160.466 41.4C160.253 41.6 159.986 41.7 159.666 41.7H154.366C154.046 41.7 153.779 41.6 153.566 41.4C153.353 41.1867 153.246 40.92 153.246 40.6C153.246 40.28 153.353 40.02 153.566 39.82C153.779 39.6067 154.046 39.5 154.366 39.5H159.666ZM163.055 39.5H167.795C168.115 39.5 168.382 39.6067 168.595 39.82C168.808 40.0333 168.915 40.3 168.915 40.62C168.915 40.9267 168.808 41.1867 168.595 41.4C168.382 41.6 168.115 41.7 167.795 41.7H163.055C162.735 41.7 162.468 41.5933 162.255 41.38C162.042 41.1667 161.935 40.9 161.935 40.58C161.935 40.2733 162.042 40.02 162.255 39.82C162.468 39.6067 162.735 39.5 163.055 39.5ZM165.195 37C165.542 37 165.822 37.12 166.035 37.36C166.262 37.5867 166.375 37.8733 166.375 38.22V47.12C166.375 47.3067 166.408 47.46 166.475 47.58C166.555 47.7 166.655 47.7867 166.775 47.84C166.908 47.8933 167.048 47.92 167.195 47.92C167.355 47.92 167.502 47.8933 167.635 47.84C167.768 47.7733 167.922 47.74 168.095 47.74C168.282 47.74 168.448 47.8267 168.595 48C168.755 48.1733 168.835 48.4133 168.835 48.72C168.835 49.0933 168.628 49.4 168.215 49.64C167.815 49.88 167.382 50 166.915 50C166.635 50 166.322 49.98 165.975 49.94C165.642 49.8867 165.322 49.7733 165.015 49.6C164.722 49.4133 164.475 49.1333 164.275 48.76C164.075 48.3867 163.975 47.8733 163.975 47.22V38.22C163.975 37.8733 164.088 37.5867 164.315 37.36C164.555 37.12 164.848 37 165.195 37Z" fill="#E2E2E2"/>
<path fill-rule="evenodd" clip-rule="evenodd" d="M21.5014 45.8558C21.5055 45.8492 21.5096 45.8426 21.5137 45.8361C21.5814 45.9942 21.5714 45.992 21.5014 45.8558ZM26.2577 25.1089C26.3818 25.1079 26.5047 25.1147 26.6263 25.1302C26.5033 25.1229 26.3804 25.1158 26.2577 25.1089Z" fill="#377DFF"/>
<path d="M40.2848 60.0241C41.184 62.1724 42.0816 64.1895 42.9825 66.0738C47.6226 63.0523 52.8201 58.085 56.8422 51.8908C59.8603 47.2489 61.1176 42.5904 60.9966 38.6807C55.9969 35.8052 46.3865 31.5883 33.655 29.1827C33.7122 26.1147 33.9967 25.8823 34.0082 25.8075C36.1645 26.0751 38.3122 26.4101 40.4483 26.812C46.8676 28.0308 53.1754 29.7917 59.3061 32.0764C56.7522 26.5729 52.5356 24.237 52.5177 24.237C52.7793 24.2104 57.1168 25.2331 60.5061 31.4954C61.8839 29.6348 63.1553 27.838 64.3205 26.1047C59.4221 23.5381 52.5896 21.4495 45.3025 21.0063C39.8335 20.6759 35.2262 21.9011 31.9563 23.9631C31.9955 29.8169 33.2103 40.3923 37.5152 52.7558C34.7635 54.2715 34.6147 54.0623 34.4627 54.1254C31.0791 45.9793 28.6286 37.4653 27.1593 28.7511C23.7422 33.7526 23.864 38.5436 23.8664 38.6408C23.716 38.4366 22.9819 31.2397 26.6263 25.1302L26.2577 25.1089C24.1148 25.1267 21.6178 27.4761 19.7169 27.3333C19.9736 32.9248 21.6085 39.9756 24.8785 46.6031C27.3097 51.5355 30.6205 54.9555 33.9869 56.8116C38.9588 53.8366 47.2383 47.5727 55.6911 37.5667C58.1387 39.0609 58.3316 39.5108 58.3905 39.5589C57.0967 41.3076 55.738 43.0293 54.3145 44.7238C50.0681 49.7562 45.4163 54.4209 40.4074 58.6694C46.5435 59.2322 50.6309 56.6473 50.6309 56.6356C50.4903 56.9145 47.3561 60.2349 40.2848 60.0241Z" fill="#377DFF"/>
</svg>
